<svg width="32" height="32" viewBox="0 0 32 32" fill="none" xmlns="http://www.w3.org/2000/svg">
<path d="M15.9993 1.90735e-06C11.6537 1.90735e-06 11.1093 0.018383 9.40267 0.0965862C7.70062 0.174788 6.53678 0.444677 5.51862 0.840288C4.46672 1.2497 3.5743 1.79712 2.68494 2.68648C1.79558 3.57584 1.24816 4.46826 0.840287 5.52015C0.444676 6.53831 0.173291 7.70062 0.0966221 9.4042C0.01842 11.1108 0 11.6552 0 16.0008C0 20.3464 0.01842 20.8907 0.0966221 22.5973C0.173291 24.3009 0.444676 25.4632 0.840287 26.4814C1.24816 27.5333 1.79558 28.4257 2.68494 29.3151C3.5743 30.2044 4.46672 30.7518 5.51862 31.1612C6.53678 31.5553 7.70062 31.8267 9.40267 31.905C11.1093 31.9816 11.6537 32 15.9993 32C20.3448 32 20.8892 31.9816 22.5958 31.905C24.2994 31.8267 25.4617 31.5553 26.4798 31.1612C27.5317 30.7518 28.4242 30.2044 29.3135 29.3151C30.2044 28.4257 30.7503 27.5333 31.1597 26.4814C31.5553 25.4632 31.8252 24.3009 31.9034 22.5973C31.9816 20.8907 32 20.3464 32 16.0008C32 11.6552 31.9816 11.1108 31.9034 9.4042C31.8252 7.70062 31.5553 6.53831 31.1597 5.52015C30.7503 4.46826 30.2044 3.57584 29.3135 2.68648C28.4242 1.79712 27.5317 1.2497 26.4798 0.840288C25.4617 0.444677 24.2994 0.174788 22.5958 0.0965862C20.8892 0.018383 20.3448 1.90735e-06 15.9993 1.90735e-06ZM15.9993 2.88275C20.2712 2.88275 20.7772 2.8996 22.4655 2.97627C24.0249 3.04834 24.8714 3.30903 25.4356 3.5283C26.1824 3.81811 26.716 4.16466 27.2757 4.72434C27.8354 5.28402 28.1819 5.81764 28.4717 6.56439C28.691 7.12867 28.9517 7.97508 29.0237 9.53605C29.1004 11.2228 29.1173 11.7288 29.1173 16.0008C29.1173 20.2728 29.1004 20.7788 29.0237 22.4655C28.9517 24.0265 28.691 24.8729 28.4717 25.4371C28.1819 26.1839 27.8354 26.716 27.2757 27.2772C26.716 27.8369 26.1824 28.1834 25.4356 28.4732C24.8714 28.6925 24.0249 28.9532 22.4655 29.0237C20.7772 29.1004 20.2728 29.1172 15.9993 29.1172C11.7273 29.1172 11.2212 29.1004 9.53452 29.0237C7.97507 28.9532 7.12714 28.6925 6.56285 28.4732C5.8161 28.1834 5.28402 27.8369 4.72434 27.2772C4.16466 26.716 3.81657 26.1839 3.52676 25.4371C3.30749 24.8729 3.0468 24.0265 2.97627 22.4655C2.8996 20.7788 2.88275 20.2728 2.88275 16.0008C2.88275 11.7288 2.8996 11.2228 2.97627 9.53605C3.0468 7.97508 3.30749 7.12867 3.52676 6.56439C3.81657 5.81764 4.16466 5.28402 4.72434 4.72434C5.28402 4.16466 5.8161 3.81811 6.56285 3.5283C7.12714 3.30903 7.97507 3.04834 9.53452 2.97627C11.2212 2.8996 11.7273 2.88275 15.9993 2.88275Z" fill="white"/>
<path d="M16.003 21.3327C13.0574 21.3327 10.6699 18.9453 10.6699 15.9998C10.6699 13.0542 13.0574 10.6668 16.003 10.6668C18.9486 10.6668 21.3361 13.0542 21.3361 15.9998C21.3361 18.9453 18.9486 21.3327 16.003 21.3327ZM16.003 7.78417C11.4657 7.78417 7.78711 11.4626 7.78711 15.9998C7.78711 20.5369 11.4657 24.2153 16.003 24.2153C20.5418 24.2153 24.2188 20.5369 24.2188 15.9998C24.2188 11.4626 20.5418 7.78417 16.003 7.78417Z" fill="white"/>
<path d="M26.4602 7.45855C26.4602 8.51842 25.6 9.37891 24.5389 9.37891C23.4794 9.37891 22.6191 8.51842 22.6191 7.45855C22.6191 6.39714 23.4794 5.53819 24.5389 5.53819C25.6 5.53819 26.4602 6.39714 26.4602 7.45855Z" fill="white"/>
</svg>
