<svg width="50" height="32" viewBox="0 0 50 32" fill="none" xmlns="http://www.w3.org/2000/svg">
<path d="M49.7343 28.8994C49.6735 28.7534 49.6172 28.6314 49.5647 28.5341C48.6966 26.7818 47.0395 24.6302 44.5928 22.0799L44.5403 22.0218L44.5144 21.992L44.4885 21.9638H44.4627C43.3519 20.7757 42.6489 19.9777 42.3545 19.568C41.8166 18.7905 41.6948 18.0018 41.99 17.2038C42.1993 16.6004 42.9798 15.3252 44.3333 13.3775C45.0447 12.3465 45.6085 11.5194 46.0254 10.8947C49.0275 6.41715 50.3285 3.5562 49.9299 2.30922L49.7731 2.01732C49.6689 1.8415 49.3996 1.68104 48.9659 1.53509C48.5323 1.38914 47.9769 1.3661 47.3005 1.46254L39.8035 1.52229C39.63 1.50266 39.4565 1.50778 39.2823 1.53594C39.1088 1.56582 38.9962 1.59484 38.9437 1.62385C38.8912 1.65373 38.8486 1.67763 38.8136 1.6964L38.7094 1.78431C38.6227 1.84235 38.5276 1.94477 38.4233 2.09158C38.3191 2.23753 38.2316 2.40737 38.1631 2.60283C37.3475 4.95851 36.4194 7.14861 35.3778 9.17398C34.7357 10.3808 34.1453 11.4281 33.6082 12.3132C33.0703 13.2 32.6191 13.8521 32.2547 14.2694C31.8902 14.6876 31.56 15.0248 31.2656 15.2766C30.9704 15.5309 30.7445 15.6367 30.5892 15.5983C30.4325 15.5599 30.2849 15.5207 30.1465 15.4805C29.9038 15.3056 29.7075 15.0675 29.5606 14.7653C29.413 14.464 29.3134 14.0842 29.2609 13.6267C29.2091 13.1693 29.1779 12.7749 29.1703 12.4438C29.1612 12.1126 29.1658 11.6457 29.1833 11.0423C29.2008 10.4389 29.2091 10.0309 29.2091 9.81582C29.2091 9.07668 29.2221 8.27353 29.2487 7.40637C29.2746 6.54006 29.2966 5.85384 29.3134 5.34771C29.3309 4.84243 29.3392 4.30643 29.3392 3.74141C29.3392 3.17809 29.3088 2.73427 29.2479 2.4125C29.1871 2.09158 29.0958 1.7809 28.9748 1.4779C28.8531 1.17662 28.675 0.942755 28.4407 0.778028C28.2064 0.612448 27.9157 0.481008 27.5688 0.383708C26.6482 0.149847 25.4773 0.0243813 24.0546 0.00389715C20.8265 -0.0336572 18.7525 0.200204 17.8327 0.70548C17.4683 0.920564 17.1381 1.21161 16.8436 1.58203C16.5309 2.01049 16.4876 2.24521 16.7135 2.28191C17.7551 2.45773 18.4923 2.8768 18.926 3.53827L19.0827 3.88821C19.2037 4.14256 19.3254 4.58979 19.4471 5.23163C19.5689 5.87432 19.6465 6.58444 19.6815 7.36369C19.7682 8.78478 19.7682 10.001 19.6815 11.0141C19.5947 12.0273 19.5126 12.815 19.4342 13.3784C19.3558 13.9434 19.2387 14.4 19.0827 14.7508C18.926 15.1024 18.8225 15.3167 18.77 15.3943C18.7175 15.472 18.6749 15.5207 18.6399 15.5403C18.414 15.6367 18.1804 15.6862 17.9369 15.6862C17.6935 15.6862 17.399 15.5497 17.0513 15.2766C16.7044 15.0051 16.3438 14.6296 15.971 14.1525C15.5974 13.6762 15.1775 13.0088 14.708 12.1519C14.2394 11.2958 13.7532 10.2835 13.2503 9.11509L12.8342 8.26756C12.574 7.72302 12.2179 6.92926 11.7667 5.88798C11.3156 4.8467 10.9161 3.83956 10.5692 2.86485C10.43 2.45688 10.2223 2.14535 9.94459 1.93026L9.81449 1.84235C9.72775 1.76468 9.58853 1.68189 9.39756 1.59484C9.20584 1.50692 9.00726 1.44376 8.7988 1.4045L1.66618 1.46254C0.937322 1.46254 0.442793 1.64861 0.182595 2.01818L0.0783637 2.19314C0.0258676 2.2913 0 2.44749 0 2.66087C0 2.87595 0.0524961 3.13798 0.156727 3.44865C1.19828 6.19439 2.33037 8.84197 3.55376 11.3914C4.77791 13.9425 5.84 15.9969 6.74308 17.5537C7.64541 19.1122 8.56523 20.5811 9.50255 21.9638C10.4399 23.3465 11.0599 24.2316 11.3635 24.6208C11.6671 25.0108 11.9052 25.3027 12.0794 25.4973L12.7299 26.1989C13.1461 26.6658 13.7585 27.2257 14.565 27.8777C15.3722 28.5307 16.2654 29.1725 17.2461 29.8041C18.226 30.4374 19.368 30.9521 20.669 31.3524C21.9708 31.7518 23.2375 31.9123 24.4693 31.8338H27.4631C28.071 31.7757 28.5305 31.5623 28.8424 31.1911L28.9467 31.0451C29.0159 30.929 29.0813 30.7481 29.1422 30.5057C29.2023 30.2624 29.2335 29.9944 29.2335 29.7025C29.2152 28.8653 29.2723 28.1099 29.4024 27.439C29.5325 26.7673 29.6801 26.2612 29.8452 25.9198C30.0103 25.5801 30.1959 25.2925 30.4051 25.0586C30.6136 24.8248 30.7604 24.6848 30.8479 24.6353C30.9347 24.5875 31.0046 24.5533 31.0564 24.5329C31.4725 24.3775 31.9625 24.5286 32.527 24.9852C33.0908 25.4435 33.6203 26.0069 34.1149 26.6794C34.6094 27.3511 35.2036 28.1048 35.8982 28.9429C36.5921 29.7802 37.1992 30.4024 37.7203 30.8113L38.2415 31.1629C38.5884 31.3959 39.0396 31.6101 39.595 31.8056C40.1504 31.9993 40.6365 32.0488 41.0527 31.9515L47.7167 31.8338C48.3763 31.8338 48.8883 31.7126 49.2527 31.4685C49.6172 31.2269 49.834 30.9572 49.9032 30.6653C49.9725 30.3734 49.977 30.0439 49.9162 29.6727C49.8553 29.3031 49.7944 29.0453 49.7343 28.8994Z" fill="white"/>
</svg>
