<svg width="70" height="56" viewBox="0 0 70 56" fill="none" xmlns="http://www.w3.org/2000/svg">
<path d="M1.63799 6.05752C1.60287 5.87355 1.64185 5.77079 1.68288 5.70446C1.73468 5.6207 1.83298 5.53261 1.97331 5.47895C2.11366 5.4253 2.24478 5.42566 2.33783 5.45318C2.41107 5.47483 2.50775 5.5246 2.6038 5.68505C6.02802 11.4058 10.372 18.5889 13.9967 24.3454C15.8074 27.2209 17.4486 29.7565 18.7099 31.5797C19.3378 32.4871 19.8895 33.2444 20.3309 33.785C20.5478 34.0508 20.7676 34.3009 20.9765 34.497C21.079 34.5933 21.2149 34.711 21.3754 34.8136C21.4907 34.8874 21.8359 35.1 22.3117 35.1C22.8826 35.1 23.2675 34.8031 23.4111 34.6806C23.5872 34.5302 23.7193 34.3633 23.809 34.2385C23.9931 33.9824 24.1658 33.6658 24.324 33.3447C24.6478 32.6874 25.0236 31.7759 25.432 30.6996C26.2535 28.5346 27.2631 25.5523 28.3301 22.2479C30.4664 15.6317 32.8605 7.63833 34.4891 2.11063C34.5335 1.95981 34.6047 1.88266 34.6732 1.83517C34.7527 1.78005 34.8657 1.74152 34.9965 1.74159C35.1273 1.74165 35.2403 1.78031 35.3197 1.83551C35.3882 1.88307 35.4593 1.9603 35.5036 2.11116C37.126 7.63913 39.511 15.632 41.6398 22.2477C42.703 25.5518 43.7091 28.5338 44.5282 30.6986C44.9353 31.7748 45.3102 32.6863 45.6332 33.3437C45.791 33.6647 45.9635 33.9814 46.1474 34.2376C46.237 34.3625 46.369 34.5296 46.5452 34.6802C46.6889 34.8029 47.0739 35.1 47.645 35.1C48.1207 35.1 48.4659 34.8875 48.5811 34.8138C48.7415 34.7112 48.8775 34.5936 48.98 34.4974C49.1891 34.3013 49.4091 34.0513 49.6264 33.7854C50.0685 33.2445 50.6213 32.4869 51.2504 31.5791C52.5143 29.7551 54.159 27.2184 55.9735 24.3417C59.6061 18.5829 63.9594 11.3975 67.39 5.67682C67.4862 5.51646 67.5829 5.46678 67.6561 5.44519C67.7492 5.41775 67.8803 5.41748 68.0205 5.47124C68.1608 5.52498 68.259 5.61314 68.3108 5.69694C68.3517 5.7633 68.3906 5.8661 68.3554 6.05003L59.1496 54.0941C59.1045 54.3297 58.8984 54.5 58.6585 54.5H11.2993C11.0593 54.5 10.8532 54.3295 10.8082 54.0938L1.63799 6.05752Z" stroke="#6D6CE9" stroke-width="3"/>
</svg>
