<svg width="26" height="56" viewBox="0 0 26 56" fill="none" xmlns="http://www.w3.org/2000/svg">
<path d="M22.5563 39.1554C22.5563 36.957 21.8675 35.1646 20.4901 33.7783C19.1126 32.3721 16.6829 31.0451 13.2009 29.7973C8.87712 28.3912 5.84474 26.7275 4.10375 24.8064C2.36277 22.8654 1.49227 20.36 1.49227 17.2902C1.49227 14.0619 2.44886 11.4476 4.36203 9.44722C6.2752 7.42706 8.87712 6.27834 12.1678 6.00106V0H15.0949V6.00106C18.4621 6.31795 21.064 7.62511 22.9007 9.92255C24.7564 12.22 25.6843 15.3393 25.6843 19.2806H22.2693C22.2693 16.1712 21.4849 13.7054 19.9161 11.8833C18.3664 10.0414 16.2428 9.12042 13.5453 9.12042C10.8286 9.12042 8.70493 9.86313 7.17439 11.3485C5.66299 12.8141 4.90728 14.7749 4.90728 17.2308C4.90728 19.6074 5.60559 21.4691 7.00221 22.8159C8.39882 24.1429 10.7712 25.4005 14.1192 26.5889C17.4864 27.7574 19.9257 28.8863 21.4371 29.9756C22.9676 31.0451 24.106 32.3225 24.8521 33.808C25.6174 35.2736 26 37.0363 26 39.096C26 42.3441 25.0147 44.9683 23.0442 46.9687C21.0927 48.9492 18.4047 50.0782 14.9801 50.3554V56H12.0817V50.3851C8.2362 50.1277 5.26122 48.8799 3.15673 46.6419C1.05224 44.3841 0 41.3043 0 37.4027H3.44371C3.44371 40.4923 4.3142 42.9185 6.05519 44.6812C7.79617 46.424 10.2259 47.2955 13.3444 47.2955C16.0611 47.2955 18.2708 46.5429 19.9735 45.0377C21.6954 43.5325 22.5563 41.5717 22.5563 39.1554Z" fill="#6D6CE9"/>
</svg>
